<?xml version="1.0" encoding="UTF-8" standalone="no"?>
<!-- Created with Inkscape (http://www.inkscape.org/) -->

<svg
   width="50mm"
   height="50mm"
   viewBox="0 0 50 50"
   version="1.1"
   id="svg1"
   xml:space="preserve"
   inkscape:version="1.3 (0e150ed6c4, 2023-07-21)"
   sodipodi:docname="settings3.svg"
   xmlns:inkscape="http://www.inkscape.org/namespaces/inkscape"
   xmlns:sodipodi="http://sodipodi.sourceforge.net/DTD/sodipodi-0.dtd"
   xmlns="http://www.w3.org/2000/svg"
   xmlns:svg="http://www.w3.org/2000/svg"><sodipodi:namedview
     id="namedview1"
     pagecolor="#ffffff"
     bordercolor="#000000"
     borderopacity="0.25"
     inkscape:showpageshadow="false"
     inkscape:pageopacity="0.0"
     inkscape:pagecheckerboard="0"
     inkscape:deskcolor="#d1d1d1"
     inkscape:document-units="mm"
     showborder="false"
     borderlayer="true"
     inkscape:zoom="1.4142136"
     inkscape:cx="211.77848"
     inkscape:cy="-3.8890873"
     inkscape:window-width="2560"
     inkscape:window-height="1355"
     inkscape:window-x="0"
     inkscape:window-y="0"
     inkscape:window-maximized="1"
     inkscape:current-layer="layer1" /><defs
     id="defs1" /><g
     inkscape:groupmode="layer"
     id="layer4"
     inkscape:label="Background"
     style="display:none"><g
       style="opacity:1;fill:none;fill-rule:nonzero;stroke:none;stroke-width:0;stroke-linecap:butt;stroke-linejoin:miter;stroke-miterlimit:10;stroke-dasharray:none"
       transform="matrix(0.32788005,0,0,0.32788005,10.261051,7.4019903)"
       id="g2">&#10;	<path
   d="m 45,2.227 c -0.79,0 -1.58,0.316 -2.162,0.947 l -42.04,45.61 c -1.129,1.225 -1.051,3.132 0.174,4.261 l 4.263,3.93 c 1.225,1.129 3.132,1.051 4.261,-0.173 l 34.474,-37.4 c 0.277,-0.301 0.654,-0.451 1.03,-0.451 0.376,0 0.753,0.15 1.03,0.451 l 34.474,37.4 c 1.129,1.225 3.036,1.302 4.261,0.173 l 4.263,-3.93 c 1.225,-1.129 1.302,-3.037 0.174,-4.261 L 47.162,3.175 C 46.58,2.543 45.79,2.227 45,2.227 Z"
   style="opacity:1;fill:#000000;fill-rule:nonzero;stroke:none;stroke-width:1;stroke-linecap:butt;stroke-linejoin:miter;stroke-miterlimit:10;stroke-dasharray:none"
   stroke-linecap="round"
   id="path1" />&#10;	<path
   d="m 45,32.227 c -0.79,0 -1.58,0.316 -2.162,0.947 l -42.04,45.61 c -1.129,1.225 -1.051,3.132 0.174,4.261 l 4.263,3.93 c 1.225,1.129 3.132,1.051 4.261,-0.173 l 34.474,-37.4 c 0.277,-0.301 0.654,-0.451 1.03,-0.451 0.376,0 0.753,0.15 1.03,0.451 l 34.474,37.4 c 1.129,1.225 3.036,1.302 4.261,0.173 l 4.263,-3.93 c 1.225,-1.129 1.302,-3.037 0.174,-4.261 L 47.162,33.175 C 46.58,32.543 45.79,32.227 45,32.227 Z"
   style="opacity:1;fill:#000000;fill-rule:nonzero;stroke:none;stroke-width:1;stroke-linecap:butt;stroke-linejoin:miter;stroke-miterlimit:10;stroke-dasharray:none"
   stroke-linecap="round"
   id="path2" />&#10;</g></g><g
     inkscape:label="Layer 1"
     inkscape:groupmode="layer"
     id="layer1"><circle
       style="opacity:1;fill:none;fill-opacity:1;stroke:#000000;stroke-width:2.98932;stroke-dasharray:none;stroke-opacity:1"
       id="path6"
       cx="25"
       cy="25"
       r="23.505341" /><path
       style="opacity:1;fill:none;fill-opacity:1;stroke:#000000;stroke-width:3.8368;stroke-dasharray:none;stroke-opacity:1"
       d="M 39.139864,25 H 10.860137"
       id="path9" /><path
       style="fill:none;fill-opacity:1;stroke:#000000;stroke-width:3.8368;stroke-dasharray:none;stroke-opacity:1"
       d="M 39.139864,34.122545 H 10.860137"
       id="path9-5" /><path
       style="fill:none;fill-opacity:1;stroke:#000000;stroke-width:3.8368;stroke-dasharray:none;stroke-opacity:1"
       d="M 39.139864,15.877454 H 10.860137"
       id="path9-2" /></g></svg>
