<svg xmlns="http://www.w3.org/2000/svg" xmlns:xlink="http://www.w3.org/1999/xlink" version="1.1" width="256" height="256" viewBox="0 0 256 256" xml:space="preserve">

<defs>
</defs>
<g style="stroke: none; stroke-width: 0; stroke-dasharray: none; stroke-linecap: butt; stroke-linejoin: miter; stroke-miterlimit: 10; fill: none; fill-rule: nonzero; opacity: 1;" transform="translate(1.4065934065934016 1.4065934065934016) scale(2.81 2.81)" >
	<path d="M 45 2.227 c -0.79 0 -1.58 0.316 -2.162 0.947 L 0.798 48.784 c -1.129 1.225 -1.051 3.132 0.174 4.261 l 4.263 3.93 c 1.225 1.129 3.132 1.051 4.261 -0.173 l 34.474 -37.4 c 0.277 -0.301 0.654 -0.451 1.03 -0.451 c 0.376 0 0.753 0.15 1.03 0.451 l 34.474 37.4 c 1.129 1.225 3.036 1.302 4.261 0.173 l 4.263 -3.93 c 1.225 -1.129 1.302 -3.037 0.174 -4.261 L 47.162 3.175 C 46.58 2.543 45.79 2.227 45 2.227 z" style="stroke: none; stroke-width: 1; stroke-dasharray: none; stroke-linecap: butt; stroke-linejoin: miter; stroke-miterlimit: 10; fill: rgb(0,0,0); fill-rule: nonzero; opacity: 1;" transform=" matrix(1 0 0 1 0 0) " stroke-linecap="round" />
	<path d="M 45 32.227 c -0.79 0 -1.58 0.316 -2.162 0.947 L 0.798 78.784 c -1.129 1.225 -1.051 3.132 0.174 4.261 l 4.263 3.93 c 1.225 1.129 3.132 1.051 4.261 -0.173 l 34.474 -37.4 c 0.277 -0.301 0.654 -0.451 1.03 -0.451 c 0.376 0 0.753 0.15 1.03 0.451 l 34.474 37.4 c 1.129 1.225 3.036 1.302 4.261 0.173 l 4.263 -3.93 c 1.225 -1.129 1.302 -3.037 0.174 -4.261 l -42.04 -45.609 C 46.58 32.543 45.79 32.227 45 32.227 z" style="stroke: none; stroke-width: 1; stroke-dasharray: none; stroke-linecap: butt; stroke-linejoin: miter; stroke-miterlimit: 10; fill: rgb(0,0,0); fill-rule: nonzero; opacity: 1;" transform=" matrix(1 0 0 1 0 0) " stroke-linecap="round" />
</g>
</svg>